<svg xmlns="http://www.w3.org/2000/svg" version="1.1" viewBox="0 0 32 32" x="0px" y="0px" preserveAspectRatio="xMidYMid meet"><title>minus-circle</title><path d="M16 0c-8.823 0-16 7.177-16 16s7.177 16 16 16c8.823 0 16-7.177 16-16s-7.177-16-16-16zM16 2.286c7.588 0 13.714 6.126 13.714 13.714s-6.126 13.714-13.714 13.714c-7.588 0-13.714-6.126-13.714-13.714s6.126-13.714 13.714-13.714zM8 14.857c-0.005 0-0.010 0-0.016 0-0.631 0-1.143 0.511-1.143 1.143s0.511 1.143 1.143 1.143c0.006 0 0.011 0 0.017 0h15.999c0.005 0 0.010 0 0.016 0 0.631 0 1.143-0.511 1.143-1.143s-0.511-1.143-1.143-1.143c-0.006 0-0.011 0-0.017 0z"></path></svg>
